<svg xmlns="http://www.w3.org/2000/svg" width="28" height="26" viewBox="0 0 28 26">
  <defs>
    <style>
      .cls-1 {
        fill: #0050f5;
        fill-rule: evenodd;
      }
    </style>
  </defs>
  <path id="Фигура_16_копия_3" data-name="Фигура 16 копия 3" class="cls-1" d="M1301.19,4766.01h-5.68a8.8,8.8,0,0,0-8.15,5.2,1.275,1.275,0,0,0-.55,0c-3.31.61-4.81,3.93-4.81,6.78v12.87a1.13,1.13,0,0,0,.6.99,1.3,1.3,0,0,0,.61.14,1.2,1.2,0,0,0,.64-0.19l3.27-2.07h9.41a6.774,6.774,0,0,0,5.83-3.39h2.54l3.27,2.08a1.285,1.285,0,0,0,.66.18,1.192,1.192,0,0,0,.56-0.14,1.12,1.12,0,0,0,.61-0.99v-12.92A8.686,8.686,0,0,0,1301.19,4766.01Zm-4.66,21.46h-9.76a1.215,1.215,0,0,0-.64.18l-1.76,1.12v-10.84c0-1.46.67-3.68,2.39-4.36a8.056,8.056,0,0,0-.06.98v3.25a8.7,8.7,0,0,0,8.81,8.54h4.01A5.061,5.061,0,0,1,1296.53,4787.47Zm11.14-2.09-1.76-1.13a1.19,1.19,0,0,0-.64-0.18h-9.76a6.4,6.4,0,0,1-6.48-6.27v-3.25a6.387,6.387,0,0,1,6.48-6.28h5.68a6.387,6.387,0,0,1,6.48,6.28v10.83Zm-2.91-6.95a1.151,1.151,0,0,1-1.17,1.13h-10.48a1.131,1.131,0,1,1,0-2.26h10.48A1.151,1.151,0,0,1,1304.76,4778.43Zm0-4.52a1.144,1.144,0,0,1-1.17,1.13h-10.48a1.131,1.131,0,1,1,0-2.26h10.48A1.151,1.151,0,0,1,1304.76,4773.91Z" transform="translate(-1282 -4766)"/>
</svg>
