<svg xmlns="http://www.w3.org/2000/svg" width="29.19" height="29.07" viewBox="0 0 29.19 29.07">
  <defs>
    <style>
      .cls-1 {
        fill: #0050f5;
        fill-rule: evenodd;
      }
    </style>
  </defs>
  <path id="Фигура_18" data-name="Фигура 18" class="cls-1" d="M1338.28,4922.95c3.9,0,4.36.01,5.9,0.08a8.576,8.576,0,0,1,2.72.5,4.689,4.689,0,0,1,1.68,1.09,4.566,4.566,0,0,1,1.09,1.67,7.939,7.939,0,0,1,.5,2.7c0.07,1.53.09,1.99,0.09,5.87s-0.02,4.34-.09,5.88a7.865,7.865,0,0,1-.5,2.69,4.6,4.6,0,0,1-1.09,1.68,4.664,4.664,0,0,1-1.68,1.08,8.03,8.03,0,0,1-2.72.5c-1.54.07-2,.09-5.9,0.09s-4.36-.02-5.9-0.09a7.956,7.956,0,0,1-2.71-.5,4.58,4.58,0,0,1-1.68-1.08,4.48,4.48,0,0,1-1.09-1.68,7.865,7.865,0,0,1-.5-2.69c-0.07-1.54-.09-2-0.09-5.88s0.02-4.34.09-5.87a7.939,7.939,0,0,1,.5-2.7,4.442,4.442,0,0,1,1.09-1.67,4.6,4.6,0,0,1,1.68-1.09,8.5,8.5,0,0,1,2.71-.5c1.54-.07,2-0.08,5.9-0.08m0-2.62c-3.96,0-4.46.02-6.02,0.09a10.743,10.743,0,0,0-3.54.67,7.259,7.259,0,0,0-2.59,1.68,7.14,7.14,0,0,0-1.68,2.57,10.452,10.452,0,0,0-.68,3.53c-0.07,1.55-.09,2.05-0.09,5.99s0.02,4.45.09,6a10.336,10.336,0,0,0,.68,3.52,7.372,7.372,0,0,0,4.27,4.25,10.715,10.715,0,0,0,3.54.68c1.56,0.07,2.06.09,6.02,0.09s4.47-.02,6.02-0.09a10.727,10.727,0,0,0,3.55-.68,7.181,7.181,0,0,0,2.59-1.67,7.092,7.092,0,0,0,1.68-2.58,10.583,10.583,0,0,0,.68-3.52c0.07-1.55.09-2.05,0.09-6s-0.02-4.44-.09-5.99a10.7,10.7,0,0,0-.68-3.53,7.14,7.14,0,0,0-1.68-2.57,7.347,7.347,0,0,0-2.59-1.68,10.756,10.756,0,0,0-3.55-.67c-1.55-.07-2.05-0.09-6.02-0.09h0Zm0,7.07a7.465,7.465,0,1,0,7.5,7.46A7.481,7.481,0,0,0,1338.28,4927.4Zm0,12.31a4.845,4.845,0,1,1,4.87-4.85A4.85,4.85,0,0,1,1338.28,4939.71Zm9.55-12.6a1.75,1.75,0,1,1-1.75-1.75A1.743,1.743,0,0,1,1347.83,4927.11Z" transform="translate(-1323.69 -4920.34)"/>
</svg>
