<svg xmlns="http://www.w3.org/2000/svg" width="28" height="20" viewBox="0 0 28 20">
  <defs>
    <style>
      .cls-1 {
        fill: #0050f5;
        fill-rule: evenodd;
      }
    </style>
  </defs>
  <path id="Фигура_15" data-name="Фигура 15" class="cls-1" d="M452,4772.4a3.45,3.45,0,0,0-3.5-3.4h-21a3.45,3.45,0,0,0-3.5,3.4v13.2a3.45,3.45,0,0,0,3.5,3.4h21a3.45,3.45,0,0,0,3.5-3.4v-13.2Zm-3.5-1.14a1.22,1.22,0,0,1,.778.29l-11.1,7.4-11.461-7.4a1.171,1.171,0,0,1,.778-0.29h21Zm0,15.47h-21a1.145,1.145,0,0,1-1.167-1.13v-11.59l11.216,7.25a1.191,1.191,0,0,0,1.306,0l10.812-7.22v11.56A1.145,1.145,0,0,1,448.5,4786.73Z" transform="translate(-424 -4769)"/>
</svg>
