<svg xmlns="http://www.w3.org/2000/svg" width="30.03" height="25.78" viewBox="0 0 30.03 25.78">
  <defs>
    <style>
      .cls-1 {
        fill: #0050f5;
        fill-rule: evenodd;
      }
    </style>
  </defs>
  <path id="Фигура_13_копия_2" data-name="Фигура 13 копия 2" class="cls-1" d="M1047.02,4766.42l-26.89,10.34c-1.47.43-1.42,1.91-.33,2.26l6.73,2.14,2.58,8.02c0.31,0.88.57,1.21,1.1,1.22a1.8,1.8,0,0,0,1.37-.72c0.68-.66,1.72-1.68,3.37-3.31l7.01,5.26c1.29,0.72,2.22.35,2.54-1.22l4.39-22.07C1049.36,4766.42,1048.25,4765.85,1047.02,4766.42Zm-19.43,14.25,15.32-9.77c0.75-.51.99,0.06,0.65,0.46l-12.71,11.62-0.66,5.79Z" transform="translate(-1019 -4766.22)"/>
</svg>
