<svg xmlns="http://www.w3.org/2000/svg" width="36.06" height="20.59" viewBox="0 0 36.06 20.59">
  <defs>
    <style>
      .cls-1 {
        fill: #0050f5;
        fill-rule: evenodd;
      }
    </style>
  </defs>
  <path id="Фигура_20" data-name="Фигура 20" class="cls-1" d="M1498.33,4944.53h2.15a1.839,1.839,0,0,0,.99-0.43,1.609,1.609,0,0,0,.29-0.95s-0.04-2.89,1.3-3.32,3.03,2.8,4.83,4.04a3.431,3.431,0,0,0,2.39.73l4.82-.07s2.52-.16,1.33-2.14c-0.1-.16-0.7-1.46-3.59-4.14-3.02-2.81-2.61-2.35,1.03-7.2,2.21-2.95,3.1-4.76,2.82-5.53-0.26-.73-1.89-0.54-1.89-0.54l-5.42.03a1.239,1.239,0,0,0-.7.13,1.409,1.409,0,0,0-.48.58,31.557,31.557,0,0,1-2.01,4.23c-2.41,4.1-3.38,4.32-3.77,4.06-0.92-.59-0.69-2.38-0.69-3.66,0-3.97.6-5.63-1.17-6.06a9.641,9.641,0,0,0-2.53-.25,11.745,11.745,0,0,0-4.5.46c-0.62.31-1.1,0.98-.81,1.02a2.457,2.457,0,0,1,1.6.8,5.225,5.225,0,0,1,.54,2.46s0.32,4.67-.75,5.26c-0.73.39-1.73-.42-3.88-4.14a34.12,34.12,0,0,1-1.94-4.01,1.587,1.587,0,0,0-.45-0.61,2.225,2.225,0,0,0-.83-0.33l-5.15.03a1.737,1.737,0,0,0-1.06.36,1.139,1.139,0,0,0-.02.92s4.03,9.44,8.6,14.19a12.358,12.358,0,0,0,8.95,4.08h0Z" transform="translate(-1480.69 -4924.03)"/>
</svg>
