<svg xmlns="http://www.w3.org/2000/svg" width="28.656" height="29.56" viewBox="0 0 28.656 29.56">
  <defs>
    <style>
      .cls-1 {
        fill: #0050f5;
        fill-rule: evenodd;
      }
    </style>
  </defs>
  <path id="Фигура_14_копия" data-name="Фигура 14 копия" class="cls-1" d="M779.176,4764a14.227,14.227,0,0,0-14.061,14.39,14.6,14.6,0,0,0,2.018,7.44l-2.538,7.72,7.785-2.55a13.753,13.753,0,0,0,6.8,1.79A14.4,14.4,0,0,0,779.176,4764Zm0,2.41a11.856,11.856,0,0,0-11.705,11.98,12.117,12.117,0,0,0,2.229,7.03l-1.462,4.45,4.5-1.48a11.391,11.391,0,0,0,6.44,1.99A11.988,11.988,0,0,0,779.176,4766.41Zm7.266,15.71a1.8,1.8,0,0,0-.672-0.46c-0.353-.19-2.084-1.15-2.409-1.29a0.558,0.558,0,0,0-.815.16c-0.252.35-.971,1.16-1.188,1.39a0.538,0.538,0,0,1-.782.06,9.442,9.442,0,0,1-2.82-1.93,10.9,10.9,0,0,1-1.9-2.62,0.534,0.534,0,0,1,.185-0.74c0.167-.16.375-0.42,0.562-0.63a2.377,2.377,0,0,0,.381-0.6,0.681,0.681,0,0,0-.006-0.64c-0.084-.19-0.735-2.02-1.007-2.77s-0.576-.64-0.785-0.64-0.448-.05-0.687-0.06a1.314,1.314,0,0,0-.974.42,4.174,4.174,0,0,0-1.369,3.02,7.2,7.2,0,0,0,1.327,3.85c0.17,0.26,2.333,4.18,5.928,5.79s3.614,1.12,4.274,1.08a3.62,3.62,0,0,0,2.487-1.65A3.147,3.147,0,0,0,786.442,4782.12Z" transform="translate(-764.594 -4764)"/>
</svg>
