<svg xmlns="http://www.w3.org/2000/svg" width="25.59" height="30.85" viewBox="0 0 25.59 30.85">
  <defs>
    <style>
      .cls-1 {
        fill: #0050f5;
        fill-rule: evenodd;
      }
    </style>
  </defs>
  <path id="Фигура_19" data-name="Фигура 19" class="cls-1" d="M1427.09,4939.35c-0.52,0-.78.4-0.78,1.18v0.79h1.55v-0.79C1427.86,4939.75,1427.6,4939.35,1427.09,4939.35Zm3.78-4.32a3.219,3.219,0,0,0-2.76-2.51,131.7,131.7,0,0,0-19.19,0,3.219,3.219,0,0,0-2.76,2.51,40.185,40.185,0,0,0-.01,12.06,3.219,3.219,0,0,0,2.77,2.5,127.913,127.913,0,0,0,19.18,0,3.219,3.219,0,0,0,2.77-2.5,27.58,27.58,0,0,0,.45-6.03A26.976,26.976,0,0,0,1430.87,4935.03Zm-17.86,1.74h-1.85v9.81h-1.73v-9.81h-1.82v-1.61h5.4v1.61Zm4.68,9.81h-1.55v-0.93a2.491,2.491,0,0,1-1.77,1.04,0.956,0.956,0,0,1-1-.63,4.517,4.517,0,0,1-.13-1.26v-6.73h1.54v6.26a3.379,3.379,0,0,0,.02.6,0.351,0.351,0,0,0,.36.36,1.379,1.379,0,0,0,.98-0.72v-6.5h1.55v8.51Zm5.88-2.56a6.927,6.927,0,0,1-.16,1.72,1.225,1.225,0,0,1-1.24.95,2.1,2.1,0,0,1-1.6-.94v0.83h-1.54v-11.42h1.54v3.73a2.1,2.1,0,0,1,1.6-.92,1.224,1.224,0,0,1,1.24.96,6.613,6.613,0,0,1,.16,1.71v3.38Zm5.84-1.42h-3.1v1.51c0,0.79.26,1.18,0.79,1.18a0.669,0.669,0,0,0,.7-0.62c0.01-.08.03-0.42,0.03-1.04h1.58v0.22c0,0.5-.02.84-0.03,1a2.261,2.261,0,0,1-.37.92,2.123,2.123,0,0,1-1.87.92,2.218,2.218,0,0,1-1.87-.87,3.246,3.246,0,0,1-.5-2v-2.98a3.276,3.276,0,0,1,.48-2,2.205,2.205,0,0,1,1.85-.87,2.156,2.156,0,0,1,1.83.87,3.347,3.347,0,0,1,.48,2v1.76Zm-8.06-3.25a1.108,1.108,0,0,0-.78.38v5.18a1.108,1.108,0,0,0,.78.38c0.44,0,.67-0.38.67-1.14v-3.64C1422.02,4939.75,1421.79,4939.35,1421.35,4939.35Zm-5.52-20.26h-1.75l-1.18,4.53-1.24-4.53h-1.82c0.37,1.07.75,2.15,1.11,3.22a28.1,28.1,0,0,1,1.06,3.65v4.66h1.74v-4.66Zm4.63,8.75v-3.01a3.344,3.344,0,0,0-.48-2.02,2.12,2.12,0,0,0-1.82-.88,2.151,2.151,0,0,0-1.83.88,3.344,3.344,0,0,0-.48,2.02v3.01a3.324,3.324,0,0,0,.48,2.02,2.151,2.151,0,0,0,1.83.88,2.12,2.12,0,0,0,1.82-.88A3.324,3.324,0,0,0,1420.46,4927.84Zm-1.56.3c0,0.79-.24,1.19-0.74,1.19s-0.75-.4-0.75-1.19v-3.62c0-.79.24-1.19,0.75-1.19s0.74,0.4.74,1.19v3.62Zm7.35,2.48v-8.59h-1.57v6.57a1.353,1.353,0,0,1-.98.73,0.356,0.356,0,0,1-.37-0.37,3.379,3.379,0,0,1-.02-0.6v-6.33h-1.56v6.8a4.116,4.116,0,0,0,.14,1.27,0.956,0.956,0,0,0,1.01.64,2.491,2.491,0,0,0,1.78-1.05v0.93h1.57Z" transform="translate(-1405.72 -4919.09)"/>
</svg>
